#!OML:ASF F:\VICON\USERDATA\INSTALL\rory3\rory3.ASF
:FULLY-SPECIFIED
:DEGREES
82
root 0.671336 17.452 -11.9955 0.0514371 -4.4687 -5.84453
lowerback 7.86474 1.12979 4.57149
upperback 0.849923 2.01724 3.2454
thorax -3.49141 0.955569 0.580504
lowerneck -14.6894 -2.02262 -9.02297
upperneck 21.2424 -1.48137 3.83761
head 9.21094 -1.00194 2.64614
rclavicle -1.41137e-014 -2.90226e-014
rhumerus -24.1362 -1.79539 -80.9516
rradius 32.5656
rwrist 3.59632
rhand -13.0376 11.9209
rfingers 7.12502
rthumb 13.0569 -17.6504
lclavicle -1.41137e-014 -2.90226e-014
lhumerus -33.9753 5.09927 85.9224
lradius 28.8573
lwrist -13.0841
lhand -9.65121 26.8963
lfingers 7.12502
lthumb 16.3195 56.2296
rfemur 2.54562 2.07916 32.1679
rtibia 17.576
rfoot -15.365 -0.970567
rtoes 8.24403
lfemur -32.1757 3.8468 -13.2153
ltibia 50.0657
lfoot -6.59881 4.46493
ltoes -0.354284
83
root 0.672957 17.4393 -11.835 0.356063 -4.58578 -5.91397
lowerback 7.6783 1.23564 4.62863
upperback 0.920845 2.14376 3.20211
thorax -3.30674 1.02117 0.495809
lowerneck -14.7273 -2.45391 -9.33129
upperneck 21.4341 -2.02554 3.92808
head 9.33029 -1.27451 2.66383
rclavicle 3.18055e-014 3.97569e-014
rhumerus -23.4583 -1.6238 -80.9763
rradius 33.1755
rwrist 3.5487
rhand -13.7752 13.1344
rfingers 7.12502
rthumb 12.3458 -16.4811
lclavicle 3.18055e-014 3.97569e-014
lhumerus -33.8579 5.44275 85.8828
lradius 28.3478
lwrist -13.3493
lhand -9.52577 27.2418
lfingers 7.12502
lthumb 16.4403 56.5651
rfemur 3.00182 2.35066 32.2985
rtibia 17.2472
rfoot -15.5088 -1.35495
rtoes 7.66184
lfemur -32.5543 3.17217 -12.9626
ltibia 47.3826
lfoot -6.51432 5.77642
ltoes 1.04905
84
root 0.67932 17.421 -11.6676 0.623085 -4.53853 -5.89791
lowerback 7.52785 1.27526 4.65803
upperback 0.946629 2.18423 3.13417
thorax -3.19098 1.04287 0.409071
lowerneck -15.2702 -2.55352 -9.52277
upperneck 21.762 -2.11677 4.1528
head 9.55772 -1.30935 2.76582
rclavicle 9.14409e-015 -3.1408e-014
rhumerus -22.908 -1.52146 -80.9821
rradius 33.7984
rwrist 3.59337
rhand -13.4814 13.0317
rfingers 7.12502
rthumb 12.6291 -16.5665
lclavicle 9.14409e-015 -3.1408e-014
lhumerus -33.7947 5.81112 85.8181
lradius 27.7028
lwrist -13.7421
lhand -9.37965 27.7559
lfingers 7.12502
lthumb 16.581 57.0676
rfemur 3.49628 2.42915 32.3183
rtibia 16.9552
rfoot -15.7107 -1.74554
rtoes 6.9955
lfemur -32.8517 2.35596 -12.7903
ltibia 44.5761
lfoot -6.11699 6.96795
ltoes 2.2736
85
root 0.688774 17.3945 -11.4953 0.822392 -4.40538 -5.87189
lowerback 7.55061 1.26146 4.66775
upperback 0.834576 2.17462 3.13032
thorax -3.31991 1.03462 0.398715
lowerneck -15.4495 -2.48311 -9.65929
upperneck 21.9359 -2.00242 4.3039
head 9.64646 -1.25236 2.85887
rclavicle 1.64494e-014 6.36111e-015
rhumerus -22.47 -1.02537 -80.9314
rradius 34.0795
rwrist 2.98601
rhand -13.7185 13.7833
rfingers 7.12502
rthumb 12.4005 -15.8289
lclavicle 1.64494e-014 6.36111e-015
lhumerus -34.2338 6.22052 85.7961
lradius 27.214
lwrist -14.2512
lhand -9.75732 26.7635
lfingers 7.12502
lthumb 16.2173 56.1052
rfemur 4.06834 2.56446 32.3325
rtibia 16.61
rfoot -15.9448 -2.16589
rtoes 7.14963
lfemur -32.8701 1.51508 -12.6452
ltibia 41.6468
lfoot -5.52127 7.78076
ltoes 2.09544
86
root 0.692699 17.3703 -11.3257 1.11806 -4.37025 -5.92194
lowerback 7.49623 1.26863 4.66308
upperback 0.776641 2.18453 3.16776
thorax -3.35115 1.03875 0.43978
lowerneck -15.4626 -2.46413 -9.7096
upperneck 21.7248 -1.94621 4.25396
head 9.57079 -1.23155 2.85361
rclavicle -1.93318e-014 -4.17448e-014
rhumerus -21.803 -0.680013 -80.9016
rradius 34.2969
rwrist 2.4561
rhand -13.8284 13.9877
rfingers 7.12502
rthumb 12.2946 -15.6309
lclavicle -1.93318e-014 -4.17448e-014
lhumerus -34.4336 6.73003 85.7447
lradius 26.6512
lwrist -14.4397
lhand -10.0388 26.0137
lfingers 7.12502
lthumb 15.9462 55.3773
rfemur 4.61873 2.8932 32.4877
rtibia 16.1678
rfoot -16.0835 -2.69292
rtoes 7.53745
lfemur -32.9432 0.679271 -12.3351
ltibia 38.669
lfoot -4.73733 8.60908
ltoes 0.917999
87
root 0.694848 17.3559 -11.1517 1.39953 -4.40473 -5.93309
lowerback 7.30382 1.30034 4.60917
upperback 0.804473 2.20754 3.18264
thorax -3.21655 1.05374 0.488152
lowerneck -15.4832 -2.4423 -9.63464
upperneck 21.4337 -1.89442 4.10923
head 9.46663 -1.21119 2.79245
rclavicle 3.31473e-014 -2.78299e-014
rhumerus -21.1653 -0.528678 -80.8587
rradius 34.7352
rwrist 2.40875
rhand -13.7183 14.0454
rfingers 7.12502
rthumb 12.4007 -15.5668
lclavicle 3.31473e-014 -2.78299e-014
lhumerus -34.342 7.29393 85.6701
lradius 25.964
lwrist -14.833
lhand -9.60619 26.3505
lfingers 7.12502
lthumb 16.3628 55.6803
rfemur 5.28588 3.1057 32.5952
rtibia 15.5641
rfoot -16.1312 -3.304
rtoes 7.43486
lfemur -33.0635 -0.228925 -11.9757
ltibia 35.7198
lfoot -3.69244 9.43584
ltoes -0.897377
88
root 0.69898 17.3435 -10.9742 1.63217 -4.5111 -5.86952
lowerback 7.17183 1.37366 4.5215
upperback 0.790556 2.2883 3.14491
thorax -3.15699 1.09576 0.493475
lowerneck -15.538 -2.44389 -9.62962
upperneck 21.353 -1.89723 4.13528
head 9.44873 -1.20699 2.79914
rclavicle 1.37161e-014 -2.06736e-014
rhumerus -20.6266 -0.490496 -80.7993
rradius 35.1472
rwrist 2.42681
rhand -13.9095 14.7139
rfingers 7.12502
rthumb 12.2164 -14.9093
lclavicle 1.37161e-014 -2.06736e-014
lhumerus -34.5123 7.57113 85.6231
lradius 25.492
lwrist -15.5257
lhand -9.14873 26.0998
lfingers 7.12502
lthumb 16.8033 55.3927
rfemur 6.13128 3.19704 32.5924
rtibia 14.734
rfoot -16.126 -3.89637
rtoes 6.49196
lfemur -33.177 -1.19771 -11.6218
ltibia 32.8855
lfoot -2.42609 10.1024
ltoes -1.93535
89
root 0.703125 17.3301 -10.7937 1.8114 -4.46621 -5.82068
lowerback 7.11488 1.43163 4.49149
upperback 0.758925 2.3585 3.07397
thorax -3.15444 1.13045 0.431311
lowerneck -15.7326 -2.49884 -9.67723
upperneck 21.5088 -1.97816 4.28455
head 9.54728 -1.23318 2.8511
rclavicle -1.47101e-014 3.37934e-014
rhumerus -20.2649 -0.589134 -80.7827
rradius 35.6057
rwrist 2.40088
rhand -14.1789 14.7719
rfingers 7.12502
rthumb 11.9566 -14.8666
lclavicle -1.47101e-014 3.37934e-014
lhumerus -34.7045 7.83954 85.5112
lradius 25.0124
lwrist -16.2341
lhand -8.83594 26.1392
lfingers 7.12502
lthumb 17.1044 55.4063
rfemur 7.09972 3.05378 32.5923
rtibia 13.8012
rfoot -16.135 -4.27513
rtoes 5.81814
lfemur -33.3514 -2.39116 -11.1747
ltibia 30.2245
lfoot -1.39796 10.641
ltoes -1.69647
90
root 0.711097 17.3161 -10.6039 2.14713 -4.36143 -5.94035
lowerback 6.81763 1.45854 4.65195
upperback 0.66587 2.39124 3.08348
thorax -3.07773 1.14535 0.356024
lowerneck -15.7544 -2.55022 -9.64722
upperneck 21.5275 -2.05002 4.26179
head 9.56306 -1.26674 2.82899
rclavicle -1.06847e-014 -3.06128e-014
rhumerus -20.0701 -0.508593 -80.7401
rradius 36.1772
rwrist 2.28065
rhand -14.0184 13.6788
rfingers 7.12502
rthumb 12.1114 -15.9507
lclavicle -1.06847e-014 -3.06128e-014
lhumerus -34.9305 8.1568 85.4691
lradius 24.5398
lwrist -16.566
lhand -8.37743 26.8701
lfingers 7.12502
lthumb 17.5456 56.0983
rfemur 7.89007 2.96181 32.7519
rtibia 12.8894
rfoot -16.126 -4.50298
rtoes 5.97606
lfemur -33.7452 -3.88244 -10.4112
ltibia 27.835
lfoot -1.20906 11.6345
ltoes 0.345136
91
root 0.719364 17.2962 -10.4208 2.41146 -4.36916 -5.87644
lowerback 6.58733 1.52957 4.57739
upperback 0.669392 2.46299 3.0562
thorax -2.94505 1.18437 0.369812
lowerneck -15.901 -2.60462 -9.49422
upperneck 21.4689 -2.11379 4.11258
head 9.57157 -1.29789 2.74141
rclavicle -1.39149e-015 -6.75868e-015
rhumerus -19.6629 -0.587604 -80.6814
rradius 36.6542
rwrist 2.11485
rhand -13.675 13.1714
rfingers 7.12502
rthumb 12.4425 -16.4382
lclavicle -1.39149e-015 -6.75868e-015
lhumerus -34.9705 8.32376 85.532
lradius 23.9814
lwrist -16.4542
lhand -8.4774 26.5411
lfingers 7.12502
lthumb 17.4494 55.7779
rfemur 8.6892 3.00222 32.7249
rtibia 12.1139
rfoot -15.9519 -4.95039
rtoes 5.83608
lfemur -34.0332 -5.41679 -9.76996
ltibia 25.7335
lfoot -1.66953 12.7283
ltoes 1.73472
92
root 0.727074 17.269 -10.2422 2.62813 -4.32853 -5.76701
lowerback 6.4849 1.56936 4.48675
upperback 0.63196 2.50137 2.95821
thorax -2.92481 1.20417 0.318272
lowerneck -16.0159 -2.51623 -9.2461
upperneck 21.3758 -2.05727 4.17098
head 9.55159 -1.24191 2.72665
rclavicle 1.23246e-014 -1.63003e-014
rhumerus -19.3025 -0.76046 -80.7248
rradius 37.0131
rwrist 1.88145
rhand -13.3033 13.8309
rfingers 7.12502
rthumb 12.8009 -15.7567
lclavicle 1.23246e-014 -1.63003e-014
lhumerus -35.0956 8.44489 85.4574
lradius 23.4926
lwrist -16.4436
lhand -8.93611 25.9904
lfingers 7.12502
lthumb 17.0079 55.2658
rfemur 9.38258 2.93988 32.6174
rtibia 11.6547
rfoot -16.043 -5.33381
rtoes 5.26811
lfemur -34.2409 -6.26369 -9.46235
ltibia 23.8865
lfoot -2.71944 13.1005
ltoes 2.4901
93
root 0.73642 17.2392 -10.0549 2.90253 -4.44536 -5.8381
lowerback 6.34715 1.65687 4.59052
upperback 0.515008 2.62061 2.91707
thorax -2.95922 1.26021 0.210531
lowerneck -16.1982 -2.30318 -8.91853
upperneck 21.434 -1.83112 4.17668
head 9.58342 -1.1087 2.7044
rclavicle -1.10325e-014 4.37326e-015
rhumerus -19.169 -0.725151 -80.7408
rradius 37.3881
rwrist 1.50096
rhand -13.8217 14.8897
rfingers 7.12502
rthumb 12.301 -14.7285
lclavicle -1.10325e-014 4.37326e-015
lhumerus -35.4787 8.71565 85.2947
lradius 23.1595
lwrist -16.9248
lhand -8.73109 26.5805
lfingers 7.12502
lthumb 17.2053 55.8388
rfemur 9.90907 3.0162 32.6574
rtibia 11.4669
rfoot -16.1178 -5.46192
rtoes 5.15378
lfemur -34.5188 -7.14134 -8.8415
ltibia 22.336
lfoot -4.48648 13.7708
ltoes 2.41063
94
root 0.745645 17.2093 -9.86675 3.21439 -4.5711 -5.83678
lowerback 6.02574 1.76052 4.57078
upperback 0.569917 2.7317 2.91113
thorax -2.7197 1.32073 0.218244
lowerneck -16.7839 -2.32063 -8.90502
upperneck 21.6148 -1.79832 4.15455
head 9.75397 -1.09277 2.70068
rclavicle 1.98785e-016 2.10712e-014
rhumerus -18.7944 -0.766818 -80.6776
rradius 37.8875
rwrist 1.12512
rhand -14.3843 15.5128
rfingers 7.12502
rthumb 11.7585 -14.1372
lclavicle 1.98785e-016 2.10712e-014
lhumerus -35.5007 8.98787 85.2654
lradius 22.7542
lwrist -17.4144
lhand -8.75281 26.8112
lfingers 7.12502
lthumb 17.1844 56.0713
rfemur 10.3465 3.15898 32.5897
rtibia 11.3883
rfoot -15.8734 -5.41154
rtoes 6.5563
lfemur -34.8554 -8.14375 -8.19799
ltibia 21.1541
lfoot -6.81523 14.2187
ltoes 0.586075
95
root 0.760794 17.182 -9.68477 3.33716 -4.57589 -5.80615
lowerback 6.01739 1.76685 4.60809
upperback 0.597719 2.74 2.89752
thorax -2.68358 1.32525 0.183668
lowerneck -16.9487 -2.54374 -9.22129
upperneck 21.6657 -2.03572 4.27299
head 9.82662 -1.2148 2.76374
rclavicle -1.39149e-014 1.86858e-014
rhumerus -18.4763 -0.779411 -80.6622
rradius 38.3434
rwrist 1.01904
rhand -14.1652 15.251
rfingers 7.12502
rthumb 11.9698 -14.3868
lclavicle -1.39149e-014 1.86858e-014
lhumerus -35.4797 9.34682 85.185
lradius 22.1314
lwrist -17.8293
lhand -9.01367 26.3215
lfingers 7.12502
lthumb 16.9333 55.6033
rfemur 10.8987 3.20243 32.4723
rtibia 11.399
rfoot -15.7197 -5.37483
rtoes 6.87513
lfemur -34.9104 -8.48587 -8.01479
ltibia 20.309
lfoot -9.0904 13.2994
ltoes -1.67159
